<?xml version="1.0" standalone="no"?>
<!DOCTYPE svg PUBLIC "-//W3C//DTD SVG 20010904//EN"
 "http://www.w3.org/TR/2001/REC-SVG-20010904/DTD/svg10.dtd">
<svg version="1.0" xmlns="http://www.w3.org/2000/svg"
 width="675.000000pt" height="675.000000pt" viewBox="0 0 675.000000 675.000000"
 preserveAspectRatio="xMidYMid meet">
<metadata>
Created by potrace 1.10, written by Peter Selinger 2001-2011
</metadata>
<g transform="translate(0.000000,675.000000) scale(0.100000,-0.100000)"
fill="#000000" stroke="none">
<path d="M1690 5061 c-81 -20 -163 -105 -180 -184 -8 -37 -10 -359 -8 -1107
l3 -1055 22 -41 c25 -47 67 -85 124 -114 37 -19 63 -20 678 -20 352 0 646 -3
655 -6 13 -5 16 -25 16 -114 0 -75 -4 -111 -13 -118 -8 -7 -139 -12 -367 -14
-348 -4 -356 -4 -415 -28 -193 -78 -325 -262 -325 -456 0 -67 1 -71 36 -105
l35 -34 1414 0 1414 0 35 34 c35 34 36 38 36 105 0 85 -18 147 -65 231 -65
116 -208 221 -335 245 -29 6 -198 10 -375 10 -264 0 -325 3 -334 14 -8 9 -11
51 -9 122 l3 109 660 5 c599 5 663 7 691 22 52 28 91 66 116 111 l23 42 3
1055 c2 748 0 1070 -8 1107 -13 61 -70 132 -134 166 l-41 22 -1665 1 c-916 1
-1676 -1 -1690 -5z m3365 -113 c17 -9 39 -32 50 -50 20 -32 20 -54 23 -1073 2
-739 0 -1051 -8 -1078 -11 -39 -28 -61 -70 -90 -23 -16 -142 -17 -1685 -17
-1628 0 -1661 0 -1692 20 -18 10 -40 31 -50 47 -17 26 -18 82 -18 1093 0 1032
1 1066 19 1097 18 29 45 48 91 64 11 4 760 6 1665 6 1529 -2 1647 -3 1675 -19z
m-1456 -2414 c24 -5 31 -12 31 -30 0 -32 -16 -38 -33 -13 -15 20 -21 21 -256
17 -180 -2 -241 0 -241 9 0 6 8 14 18 16 27 7 446 8 481 1z m-236 -94 l187 0
0 -70 0 -70 -222 2 -223 3 -3 74 -3 74 38 -7 c21 -3 122 -6 226 -6z m1068
-260 c30 -6 70 -18 89 -27 40 -18 109 -70 128 -95 7 -9 18 -23 25 -30 13 -15
38 -64 61 -122 21 -52 21 -132 0 -140 -20 -8 -2718 -8 -2738 0 -21 8 -21 88 0
140 23 58 48 107 61 122 7 7 18 21 25 30 37 50 134 107 208 121 65 13 2074 13
2141 1z"/>
<path d="M1790 4871 c-19 -10 -48 -35 -65 -55 l-30 -38 -3 -964 c-2 -878 -1
-967 14 -997 18 -36 35 -53 79 -82 30 -20 49 -20 1580 -20 1525 0 1550 0 1580
20 47 31 73 62 85 103 8 26 10 326 8 989 l-3 951 -30 38 c-17 20 -46 45 -65
55 -33 18 -94 19 -1575 19 -1481 0 -1542 -1 -1575 -19z m3108 -108 c3 -10 -38
-13 -182 -13 l-186 0 0 -25 c0 -14 -7 -28 -15 -31 -8 -4 -15 -16 -15 -28 0
-12 -13 -33 -30 -46 -16 -14 -29 -33 -30 -43 0 -10 -13 -32 -30 -49 -16 -16
-30 -37 -30 -45 0 -9 -20 -36 -45 -60 -25 -23 -45 -49 -45 -57 0 -9 -20 -36
-45 -62 -25 -25 -45 -53 -45 -61 0 -19 -465 -483 -485 -483 -8 0 -41 -27 -73
-60 -33 -33 -68 -60 -78 -60 -10 -1 -30 -14 -44 -30 -13 -17 -32 -30 -42 -30
-10 0 -38 -20 -61 -45 -24 -25 -52 -45 -63 -45 -10 -1 -30 -14 -44 -30 -13
-17 -34 -30 -46 -30 -12 0 -24 -7 -28 -15 -3 -8 -16 -15 -30 -15 -13 0 -26 -7
-30 -15 -3 -8 -16 -15 -30 -15 -13 0 -26 -7 -30 -15 -3 -8 -15 -15 -26 -15
-24 0 -63 -37 -57 -54 3 -8 -6 -11 -29 -8 -24 3 -36 0 -40 -12 -3 -9 -16 -16
-29 -16 -13 0 -25 -7 -29 -15 -3 -10 -19 -15 -45 -15 -25 0 -41 -5 -45 -15 -3
-8 -17 -15 -31 -15 -14 0 -28 -7 -31 -15 -4 -8 -16 -15 -29 -15 -13 0 -25 -7
-29 -15 -3 -10 -19 -15 -45 -15 -25 0 -41 -5 -45 -15 -3 -8 -16 -15 -30 -15
-13 0 -26 -7 -30 -15 -3 -10 -19 -15 -45 -15 -25 0 -41 -5 -45 -15 -3 -10 -19
-15 -45 -15 -25 0 -41 -5 -45 -15 -3 -10 -19 -15 -45 -15 -25 0 -41 -5 -45
-15 -4 -11 -21 -15 -60 -15 -39 0 -55 -4 -60 -15 -3 -10 -19 -15 -45 -15 -25
0 -41 -5 -45 -15 -4 -11 -21 -15 -61 -15 -40 0 -57 -4 -61 -15 -5 -11 -21 -15
-60 -15 -41 0 -54 -4 -54 -15 0 -8 -7 -15 -15 -15 -13 0 -15 111 -15 942 0
879 1 943 17 961 17 18 51 19 1547 15 1212 -2 1530 -6 1534 -15z m22 -968 c0
-520 -3 -945 -7 -945 -14 0 -39 20 -25 20 9 0 12 194 12 935 0 617 3 935 10
935 7 0 10 -322 10 -945z"/>
<path d="M4382 2121 c-26 -16 -7 -45 43 -69 75 -36 155 -112 155 -149 0 -10
-210 -14 -1112 -17 -612 -2 -1120 -4 -1128 -4 -8 -1 -64 1 -123 4 -126 7 -157
2 -157 -26 0 -31 32 -40 149 -40 94 0 111 3 120 17 9 17 10 17 28 0 18 -16 92
-17 1145 -17 l1125 0 22 24 c12 13 18 27 13 30 -5 3 -12 20 -16 37 -5 29 -46
88 -89 132 -24 24 -132 87 -149 87 -7 0 -19 -4 -26 -9z"/>
</g>
</svg>
